<svg height="32px" width="32px" viewBox="0 -1 498.784 498" xmlns="http://www.w3.org/2000/svg" xmlns:xlink="http://www.w3.org/1999/xlink"><linearGradient id="a" gradientTransform="matrix(8 0 0 -8 -6.608 504.392)" gradientUnits="userSpaceOnUse" x1="32" x2="32" y1="1" y2="63"><stop offset="0" stop-color="#9f2fff"/><stop offset="1" stop-color="#0bb1d3"/></linearGradient><path d="m65.390625 496.390625h368v-114.878906c0-34.625-24.695313-64.382813-58.734375-70.769531l-69.265625-12.988282v-21.53125c15.777344-13.046875 26.867187-31.511718 30.578125-52.496094 18.917969-3.160156 33.421875-19.535156 33.421875-39.335937v-64c0-66.167969-53.832031-120-120-120s-120 53.832031-120 120v64c0 19.800781 14.503906 36.175781 33.425781 39.335937 3.710938 20.976563 14.792969 39.441407 30.574219 52.496094v21.53125l-69.269531 12.988282c-34.03125 6.386718-58.730469 36.144531-58.730469 70.769531zm133.769531-183.4375 37.152344 30.957031-34.480469 24.632813-7.144531-54.75zm100.464844 0 4.480469.839844-7.144531 54.75-34.480469-24.632813zm28.839844 112.472656-20.617188 54.964844h-9.34375l8.71875-66.847656 10.90625-3.632813zm-79.074219-71.203125 22.210937 15.867188-11.152343 22.300781h-22.113281l-11.152344-22.3125zm35.394531 25.273438 9.832032 7.023437-9.863282 75.617188-11.011718-60.542969zm-70.785156 0 11.039062 22.089844-11.007812 60.542968-9.863281-75.617187zm26.070312 28.894531h18.648438l13.089844 72h-44.832032zm69.449219-12.46875 10.328125-79.179687 32.792969 6.144531-14.082031 63.34375zm-120.253906 0-29.042969-9.683594-14.078125-63.34375 32.792969-6.140625zm-8.601563 13.988281 10.902344 3.632813 8.722656 66.847656h-9.34375l-20.617187-54.964844zm236.726563-28.398437v98.878906h-92.453125l21.382812-57.03125-12.464843-18.695313 18.359375-6.121093 16.152344-72.710938 3.335937.625c26.480469 4.976563 45.6875 28.117188 45.6875 55.054688zm-80-174.589844v-45.050781c9.289063 3.3125 16 12.113281 16 22.527344 0 10.417968-6.710937 19.210937-16 22.523437zm-88-190.53125c57.34375 0 104 46.65625 104 104v32.210937c-4.671875-3.539062-10.054687-6.1875-16-7.394531v-13.75l-40.574219-20.289062-7.894531 5.265625c-23.496094 15.65625-55.570313 15.65625-79.066406 0l-7.894531-5.265625-40.570313 20.28125v13.75c-5.941406 1.214843-11.328125 3.855469-16 7.394531v-32.203125c0-57.34375 46.65625-104 104-104zm-104 168c0-10.414063 6.714844-19.214844 16-22.527344v45.046875c-9.285156-3.300781-16-12.101562-16-22.519531zm32 24v-67.054687l23.425781-11.710938.167969.109375c28.769531 19.175781 68.046875 19.175781 96.816406 0l.167969-.109375 23.421875 11.710938v67.054687c0 39.699219-32.300781 72-72 72-39.695313 0-72-32.300781-72-72zm72 88c14.410156 0 27.984375-3.550781 40-9.710937v13.96875l-40 33.335937-40-33.335937v-13.96875c12.015625 6.160156 25.59375 9.710937 40 9.710937zm-168 85.121094c0-26.925781 19.210937-50.078125 45.679687-55.046875l3.335938-.625 16.152344 72.710937 18.363281 6.121094-12.464844 18.695313 21.382813 57.03125h-92.449219zm136-157.121094h16c0 8.824219 7.175781 16 16 16s16-7.175781 16-16h16c0 17.648437-14.351563 32-32 32s-32-14.351563-32-32zm64-56c0-4.414063 3.585937-8 8-8 4.417969 0 8 3.585937 8 8 0 4.417969-3.582031 8-8 8-4.414063 0-8-3.582031-8-8zm-80 0c0-4.414063 3.585937-8 8-8 4.417969 0 8 3.585937 8 8 0 4.417969-3.582031 8-8 8-4.414063 0-8-3.582031-8-8zm216 136h-16v-16h16zm81.394531-224h-33.394531v384h-16v-400h14.609375l-30.609375-35.703125-30.605469 35.703125h14.605469v208h-16v-192h-33.390625l65.390625-76.292969zm-33.394531 416h-16v-16h16zm-368-192h-16v-16h16zm-64-224h-33.390625l65.390625-76.292969 65.394531 76.292969h-33.394531v192h-16v-208h14.609375l-30.609375-35.703125-30.605469 35.703125h14.605469v400h-16zm16 400v16h-16v-16zm0 0" fill="url(#a)"/></svg>
